<?xml version="1.0" encoding="utf-8"?>
<!-- Generator: Adobe Illustrator 27.1.0, SVG Export Plug-In . SVG Version: 6.00 Build 0)  -->
<svg version="1.1" id="Layer_1" xmlns="http://www.w3.org/2000/svg" xmlns:xlink="http://www.w3.org/1999/xlink" x="0px" y="0px"
	 viewBox="0 0 60 60" style="enable-background:new 0 0 60 60;" xml:space="preserve">
<style type="text/css">
	.st0{fill:#1A1A1A;}
</style>
<g>
	<path class="st0" d="M30,60h-2.1V32.2L4.2,32.4c0.5,6,3.1,11.6,7.4,15.9l-3,3C3.1,45.5-0.1,38-0.1,30S3.1,14.4,8.7,8.8
		C14.4,3.1,21.9,0,30,0H32v28L60,27.9V30c0,8-3.1,15.5-8.8,21.2C45.5,56.9,38,60,30,60z M32,32.2v23.5c6.1-0.5,11.8-3.1,16.2-7.5
		s7-10,7.5-16.1L32,32.2z M27.9,4.3c-6.1,0.5-11.8,3.1-16.2,7.5C7.3,16.2,4.6,22,4.2,28.2l23.7-0.1V4.3z"/>
</g>
</svg>
